<mxfile host="app.diagrams.net" modified="2023-03-31T14:44:59.975Z" agent="Mozilla/5.0 (Windows NT 10.0; Win64; x64) AppleWebKit/537.36 (KHTML, like Gecko) Chrome/110.0.0.0 Safari/537.36" etag="HvrfTKkSr-YmBMabvcnL" version="21.1.2" type="github">
  <diagram name="PÃ¡gina-1" id="HQuNqOtXM937pcGk3T5x">
    <mxGraphModel dx="756" dy="424" grid="1" gridSize="10" guides="1" tooltips="1" connect="1" arrows="1" fold="1" page="1" pageScale="1" pageWidth="827" pageHeight="1169" math="0" shadow="0">
      <root>
        <mxCell id="0" />
        <mxCell id="1" parent="0" />
        <mxCell id="p1mFdIxeezli4ScWppZF-30" value="" style="edgeStyle=orthogonalEdgeStyle;rounded=0;orthogonalLoop=1;jettySize=auto;html=1;entryX=0.484;entryY=0.188;entryDx=0;entryDy=0;entryPerimeter=0;" edge="1" parent="1" source="p1mFdIxeezli4ScWppZF-11" target="p1mFdIxeezli4ScWppZF-14">
          <mxGeometry relative="1" as="geometry">
            <Array as="points">
              <mxPoint x="430" y="165" />
              <mxPoint x="437" y="165" />
              <mxPoint x="437" y="235" />
            </Array>
          </mxGeometry>
        </mxCell>
        <mxCell id="p1mFdIxeezli4ScWppZF-11" value="inicio" style="strokeWidth=2;html=1;shape=mxgraph.flowchart.terminator;whiteSpace=wrap;" vertex="1" parent="1">
          <mxGeometry x="364" y="20" width="146" height="90" as="geometry" />
        </mxCell>
        <mxCell id="p1mFdIxeezli4ScWppZF-14" value="&lt;div style=&quot;color: rgb(248, 248, 242); background-color: rgb(39, 40, 34); font-family: Consolas, &amp;quot;Courier New&amp;quot;, monospace; font-size: 14px; line-height: 19px;&quot;&gt;Digite seu nome&lt;/div&gt;" style="html=1;strokeWidth=2;shape=manualInput;whiteSpace=wrap;rounded=1;size=26;arcSize=11;" vertex="1" parent="1">
          <mxGeometry x="374" y="220" width="126" height="80" as="geometry" />
        </mxCell>
        <mxCell id="p1mFdIxeezli4ScWppZF-36" value="" style="edgeStyle=orthogonalEdgeStyle;rounded=0;orthogonalLoop=1;jettySize=auto;html=1;" edge="1" parent="1" source="p1mFdIxeezli4ScWppZF-18" target="p1mFdIxeezli4ScWppZF-35">
          <mxGeometry relative="1" as="geometry" />
        </mxCell>
        <mxCell id="p1mFdIxeezli4ScWppZF-18" value="&lt;div style=&quot;color: rgb(248, 248, 242); background-color: rgb(39, 40, 34); font-family: Consolas, &amp;quot;Courier New&amp;quot;, monospace; font-size: 14px; line-height: 19px;&quot;&gt;Digite seu seu salario&lt;/div&gt;" style="html=1;strokeWidth=2;shape=manualInput;whiteSpace=wrap;rounded=1;size=26;arcSize=11;" vertex="1" parent="1">
          <mxGeometry x="230" y="230" width="126" height="80" as="geometry" />
        </mxCell>
        <mxCell id="p1mFdIxeezli4ScWppZF-34" value="" style="edgeStyle=orthogonalEdgeStyle;rounded=0;orthogonalLoop=1;jettySize=auto;html=1;" edge="1" parent="1" source="p1mFdIxeezli4ScWppZF-19" target="p1mFdIxeezli4ScWppZF-33">
          <mxGeometry relative="1" as="geometry" />
        </mxCell>
        <mxCell id="p1mFdIxeezli4ScWppZF-19" value="&lt;div style=&quot;color: rgb(248, 248, 242); background-color: rgb(39, 40, 34); font-family: Consolas, &amp;quot;Courier New&amp;quot;, monospace; font-size: 14px; line-height: 19px;&quot;&gt;Digite valor das vendas em $&lt;/div&gt;" style="html=1;strokeWidth=2;shape=manualInput;whiteSpace=wrap;rounded=1;size=26;arcSize=11;" vertex="1" parent="1">
          <mxGeometry x="70" y="230" width="126" height="85" as="geometry" />
        </mxCell>
        <mxCell id="p1mFdIxeezli4ScWppZF-22" value="" style="edgeStyle=orthogonalEdgeStyle;rounded=0;orthogonalLoop=1;jettySize=auto;html=1;exitX=0.5;exitY=1;exitDx=0;exitDy=0;" edge="1" parent="1" source="p1mFdIxeezli4ScWppZF-14" target="p1mFdIxeezli4ScWppZF-21">
          <mxGeometry relative="1" as="geometry">
            <mxPoint x="437" y="350" as="targetPoint" />
            <mxPoint x="437" y="300" as="sourcePoint" />
          </mxGeometry>
        </mxCell>
        <mxCell id="p1mFdIxeezli4ScWppZF-21" value="&lt;div style=&quot;color: rgb(248, 248, 242); background-color: rgb(39, 40, 34); font-family: Consolas, &amp;quot;Courier New&amp;quot;, monospace; font-size: 14px; line-height: 19px;&quot;&gt;nome_funcionario&lt;/div&gt;" style="shape=parallelogram;html=1;strokeWidth=2;perimeter=parallelogramPerimeter;whiteSpace=wrap;rounded=1;arcSize=12;size=0.23;" vertex="1" parent="1">
          <mxGeometry x="387" y="390" width="100" height="60" as="geometry" />
        </mxCell>
        <mxCell id="p1mFdIxeezli4ScWppZF-25" value="" style="edgeStyle=none;orthogonalLoop=1;jettySize=auto;html=1;rounded=0;entryX=0.762;entryY=0.082;entryDx=0;entryDy=0;entryPerimeter=0;" edge="1" parent="1" source="p1mFdIxeezli4ScWppZF-11" target="p1mFdIxeezli4ScWppZF-19">
          <mxGeometry width="100" relative="1" as="geometry">
            <mxPoint x="310" y="120" as="sourcePoint" />
            <mxPoint x="450" y="140" as="targetPoint" />
            <Array as="points" />
          </mxGeometry>
        </mxCell>
        <mxCell id="p1mFdIxeezli4ScWppZF-28" value="" style="edgeStyle=none;orthogonalLoop=1;jettySize=auto;html=1;rounded=0;" edge="1" parent="1" source="p1mFdIxeezli4ScWppZF-11" target="p1mFdIxeezli4ScWppZF-18">
          <mxGeometry width="100" relative="1" as="geometry">
            <mxPoint x="414" y="110" as="sourcePoint" />
            <mxPoint x="250" y="247" as="targetPoint" />
            <Array as="points" />
          </mxGeometry>
        </mxCell>
        <mxCell id="p1mFdIxeezli4ScWppZF-29" value="" style="edgeStyle=none;orthogonalLoop=1;jettySize=auto;html=1;rounded=0;entryX=0.762;entryY=0.082;entryDx=0;entryDy=0;entryPerimeter=0;" edge="1" parent="1">
          <mxGeometry width="100" relative="1" as="geometry">
            <mxPoint x="730" y="10" as="sourcePoint" />
            <mxPoint x="530" y="137" as="targetPoint" />
            <Array as="points">
              <mxPoint x="630" y="87" />
            </Array>
          </mxGeometry>
        </mxCell>
        <mxCell id="p1mFdIxeezli4ScWppZF-38" value="" style="edgeStyle=orthogonalEdgeStyle;rounded=0;orthogonalLoop=1;jettySize=auto;html=1;" edge="1" parent="1" source="p1mFdIxeezli4ScWppZF-33" target="p1mFdIxeezli4ScWppZF-37">
          <mxGeometry relative="1" as="geometry" />
        </mxCell>
        <mxCell id="p1mFdIxeezli4ScWppZF-33" value="&lt;br&gt;&lt;div style=&quot;color: rgb(248, 248, 242); background-color: rgb(39, 40, 34); font-family: Consolas, &amp;quot;Courier New&amp;quot;, monospace; font-weight: normal; font-size: 14px; line-height: 19px;&quot;&gt;&lt;div&gt;&lt;span style=&quot;color: #f8f8f2;&quot;&gt;vendas&lt;/span&gt;&lt;/div&gt;&lt;/div&gt;&lt;br&gt;" style="shape=parallelogram;perimeter=parallelogramPerimeter;whiteSpace=wrap;html=1;fixedSize=1;strokeWidth=2;rounded=1;arcSize=11;" vertex="1" parent="1">
          <mxGeometry x="73" y="407.5" width="120" height="60" as="geometry" />
        </mxCell>
        <mxCell id="p1mFdIxeezli4ScWppZF-45" style="edgeStyle=orthogonalEdgeStyle;rounded=0;orthogonalLoop=1;jettySize=auto;html=1;entryX=1;entryY=0.25;entryDx=0;entryDy=0;" edge="1" parent="1" source="p1mFdIxeezli4ScWppZF-35" target="p1mFdIxeezli4ScWppZF-46">
          <mxGeometry relative="1" as="geometry">
            <mxPoint x="410" y="830" as="targetPoint" />
          </mxGeometry>
        </mxCell>
        <mxCell id="p1mFdIxeezli4ScWppZF-35" value="&#xa;&lt;div style=&quot;color: rgb(248, 248, 242); background-color: rgb(39, 40, 34); font-family: Consolas, &amp;quot;Courier New&amp;quot;, monospace; font-weight: normal; font-size: 14px; line-height: 19px;&quot;&gt;&lt;div&gt;&lt;span style=&quot;color: #f8f8f2;&quot;&gt;salario_bruto&lt;/span&gt;&lt;/div&gt;&lt;/div&gt;&#xa;&#xa;" style="shape=parallelogram;perimeter=parallelogramPerimeter;whiteSpace=wrap;html=1;fixedSize=1;strokeWidth=2;rounded=1;arcSize=11;" vertex="1" parent="1">
          <mxGeometry x="236" y="380" width="120" height="70" as="geometry" />
        </mxCell>
        <mxCell id="p1mFdIxeezli4ScWppZF-41" value="" style="edgeStyle=orthogonalEdgeStyle;rounded=0;orthogonalLoop=1;jettySize=auto;html=1;" edge="1" parent="1" source="p1mFdIxeezli4ScWppZF-37" target="p1mFdIxeezli4ScWppZF-40">
          <mxGeometry relative="1" as="geometry" />
        </mxCell>
        <mxCell id="p1mFdIxeezli4ScWppZF-37" value="&lt;div style=&quot;color: rgb(248, 248, 242); background-color: rgb(39, 40, 34); font-family: Consolas, &amp;quot;Courier New&amp;quot;, monospace; font-size: 14px; line-height: 19px;&quot;&gt;*&lt;span style=&quot;color: #ae81ff;&quot;&gt;15&lt;/span&gt;&lt;/div&gt;" style="whiteSpace=wrap;html=1;strokeWidth=2;rounded=1;arcSize=11;" vertex="1" parent="1">
          <mxGeometry x="73" y="547.5" width="120" height="60" as="geometry" />
        </mxCell>
        <mxCell id="p1mFdIxeezli4ScWppZF-44" value="" style="edgeStyle=orthogonalEdgeStyle;rounded=0;orthogonalLoop=1;jettySize=auto;html=1;" edge="1" parent="1" source="p1mFdIxeezli4ScWppZF-40" target="p1mFdIxeezli4ScWppZF-51">
          <mxGeometry relative="1" as="geometry">
            <mxPoint x="280" y="770" as="targetPoint" />
          </mxGeometry>
        </mxCell>
        <mxCell id="p1mFdIxeezli4ScWppZF-40" value="&lt;div style=&quot;color: rgb(248, 248, 242); background-color: rgb(39, 40, 34); font-family: Consolas, &amp;quot;Courier New&amp;quot;, monospace; font-size: 14px; line-height: 19px;&quot;&gt;/&lt;span style=&quot;color: #ae81ff;&quot;&gt;100&lt;/span&gt;&lt;/div&gt;" style="rounded=1;whiteSpace=wrap;html=1;strokeWidth=2;arcSize=11;" vertex="1" parent="1">
          <mxGeometry x="73" y="687.5" width="120" height="60" as="geometry" />
        </mxCell>
        <mxCell id="p1mFdIxeezli4ScWppZF-47" value="" style="edgeStyle=orthogonalEdgeStyle;rounded=0;orthogonalLoop=1;jettySize=auto;html=1;" edge="1" parent="1" source="p1mFdIxeezli4ScWppZF-51" target="p1mFdIxeezli4ScWppZF-46">
          <mxGeometry relative="1" as="geometry">
            <mxPoint x="280" y="830" as="sourcePoint" />
          </mxGeometry>
        </mxCell>
        <mxCell id="p1mFdIxeezli4ScWppZF-49" value="" style="edgeStyle=orthogonalEdgeStyle;rounded=0;orthogonalLoop=1;jettySize=auto;html=1;entryX=0.5;entryY=0;entryDx=0;entryDy=0;entryPerimeter=0;" edge="1" parent="1" source="p1mFdIxeezli4ScWppZF-46" target="p1mFdIxeezli4ScWppZF-50">
          <mxGeometry relative="1" as="geometry">
            <mxPoint x="293" y="1110" as="targetPoint" />
          </mxGeometry>
        </mxCell>
        <mxCell id="p1mFdIxeezli4ScWppZF-46" value="&lt;br&gt;&lt;div style=&quot;border-color: var(--border-color); font-style: normal; font-variant-ligatures: normal; font-variant-caps: normal; font-weight: normal; letter-spacing: normal; orphans: 2; text-align: center; text-indent: 0px; text-transform: none; widows: 2; word-spacing: 0px; -webkit-text-stroke-width: 0px; text-decoration-thickness: initial; text-decoration-style: initial; text-decoration-color: initial; color: rgb(248, 248, 242); background-color: rgb(39, 40, 34); font-family: Consolas, &amp;quot;Courier New&amp;quot;, monospace; font-size: 14px; line-height: 19px;&quot;&gt;&lt;div style=&quot;border-color: var(--border-color);&quot;&gt;&lt;span style=&quot;border-color: var(--border-color); color: rgb(248, 248, 242);&quot;&gt;comissao_vendas +&amp;nbsp;&lt;/span&gt;&lt;/div&gt;&lt;/div&gt;&lt;div style=&quot;border-color: var(--border-color); color: rgb(248, 248, 242); background-color: rgb(39, 40, 34); font-family: Consolas, &amp;quot;Courier New&amp;quot;, monospace; font-size: 14px; line-height: 19px;&quot;&gt;&lt;div style=&quot;border-color: var(--border-color);&quot;&gt;salario_bruto&lt;/div&gt;&lt;/div&gt;" style="rounded=1;whiteSpace=wrap;html=1;strokeWidth=2;arcSize=11;" vertex="1" parent="1">
          <mxGeometry x="220" y="910" width="150" height="90" as="geometry" />
        </mxCell>
        <mxCell id="p1mFdIxeezli4ScWppZF-50" value="&#xa;&lt;div style=&quot;color: rgb(248, 248, 242); background-color: rgb(39, 40, 34); font-family: Consolas, &amp;quot;Courier New&amp;quot;, monospace; font-weight: normal; font-size: 14px; line-height: 19px;&quot;&gt;&lt;div&gt;&lt;span style=&quot;color: #f8f8f2;&quot;&gt;salario_liquido&lt;/span&gt;&lt;/div&gt;&lt;/div&gt;&#xa;&#xa;" style="strokeWidth=2;html=1;shape=mxgraph.flowchart.display;whiteSpace=wrap;" vertex="1" parent="1">
          <mxGeometry x="240" y="1130" width="100" height="60" as="geometry" />
        </mxCell>
        <mxCell id="p1mFdIxeezli4ScWppZF-51" value="&lt;br&gt;&lt;div style=&quot;border-color: var(--border-color); font-style: normal; font-variant-ligatures: normal; font-variant-caps: normal; font-weight: normal; letter-spacing: normal; orphans: 2; text-align: center; text-indent: 0px; text-transform: none; widows: 2; word-spacing: 0px; -webkit-text-stroke-width: 0px; text-decoration-thickness: initial; text-decoration-style: initial; text-decoration-color: initial; color: rgb(248, 248, 242); background-color: rgb(39, 40, 34); font-family: Consolas, &amp;quot;Courier New&amp;quot;, monospace; font-size: 14px; line-height: 19px;&quot;&gt;&lt;div style=&quot;border-color: var(--border-color);&quot;&gt;&lt;span style=&quot;border-color: var(--border-color); color: rgb(248, 248, 242);&quot;&gt;comissao_vendas&lt;/span&gt;&lt;/div&gt;&lt;/div&gt;&lt;br style=&quot;border-color: var(--border-color); color: rgb(0, 0, 0); font-family: Helvetica; font-size: 12px; font-style: normal; font-variant-ligatures: normal; font-variant-caps: normal; font-weight: 400; letter-spacing: normal; orphans: 2; text-align: center; text-indent: 0px; text-transform: none; widows: 2; word-spacing: 0px; -webkit-text-stroke-width: 0px; background-color: rgb(251, 251, 251); text-decoration-thickness: initial; text-decoration-style: initial; text-decoration-color: initial;&quot;&gt;&lt;br&gt;" style="strokeWidth=2;html=1;shape=mxgraph.flowchart.display;whiteSpace=wrap;" vertex="1" parent="1">
          <mxGeometry x="236" y="760" width="100" height="60" as="geometry" />
        </mxCell>
      </root>
    </mxGraphModel>
  </diagram>
</mxfile>
